<svg width="62" height="61" viewBox="0 0 62 61" fill="none" xmlns="http://www.w3.org/2000/svg">
<g opacity="0.4">
<path d="M36.8735 42.3504L46.7444 32.6381L51.2695 37.0911C51.7671 37.5799 52.3752 37.7142 52.9833 37.4669C53.6788 37.1855 54.2189 36.4558 54.2189 35.8028L54.25 18.9184C54.2529 17.7432 53.2794 16.7846 52.0792 16.7811L34.8811 16.7754C34.2563 16.7754 33.5356 17.3424 33.2308 18.0586C33.0914 18.3968 32.9275 19.0413 33.4496 19.5565L37.8051 23.8403L24.2006 37.2247L28.5511 41.5027C29.0725 42.0187 28.9093 42.663 28.7699 43.0006C28.4637 43.7168 27.7422 44.2838 27.119 44.2838L9.92164 44.2789C8.7214 44.276 7.74641 43.3167 7.75001 42.1416L7.78109 25.2578C7.78109 24.6048 8.32056 23.875 9.01675 23.593C9.62481 23.3465 10.2344 23.4807 10.7305 23.9696L15.255 28.4232L24.821 19.0107" stroke="white" stroke-width="2"/>
</g>
</svg>
